<?xml version="1.0" standalone="no"?>
<!DOCTYPE svg PUBLIC "-//W3C//DTD SVG 1.1//EN" "http://www.w3.org/Graphics/SVG/1.1/DTD/svg11.dtd" >
<svg xmlns="http://www.w3.org/2000/svg">
<metadata></metadata>
<defs>
<font id="ag_foreignerulb-obliquemedium" horiz-adv-x="758" >
<font-face units-per-em="2048" ascent="1638" descent="-410" />
<missing-glyph horiz-adv-x="500" />
<glyph horiz-adv-x="2048" />
<glyph horiz-adv-x="2048" />
<glyph unicode="&#xd;" horiz-adv-x="0" />
<glyph unicode=" " />
<glyph unicode="!" horiz-adv-x="872" d="M110 0l60 381h446l-59 -381h-447zM223 528l63 902h550l-224 -902h-389z" />
<glyph unicode="&#x22;" horiz-adv-x="1138" d="M221 805l101 625h306l-100 -625h-307zM660 805l100 625h307l-101 -625h-306z" />
<glyph unicode="#" horiz-adv-x="1229" d="M33 366l41 258h176l57 187h-139l41 258h176l107 365h278l-106 -365h137l107 365h278l-106 -365h138l-40 -258h-176l-58 -187h142l-42 -258h-176l-108 -366h-278l108 366h-138l-108 -366h-278l108 366h-141zM528 624h138l57 187h-137z" />
<glyph unicode="$" horiz-adv-x="1290" d="M-18 66l48 315q184 -74 363 -74q94 0 167.5 23.5t82.5 83.5q0 61 -94.5 95.5t-189.5 65.5t-165.5 100t-70.5 205q0 22 8 88q27 173 161.5 279.5t340.5 128.5l39 242h270l-39 -242q188 -4 334 -49l-51 -319q-162 62 -326 61q-90 0 -147 -22q-57 -23 -70 -97q0 -48 95 -79 t200.5 -62t180.5 -96t75 -187q0 -30 -6 -63q-18 -118 -89 -210.5t-178 -150.5t-231 -82l-43 -266h-270l39 246q-196 0 -434 66z" />
<glyph unicode="%" horiz-adv-x="1972" d="M104 930q0 56 8 104q32 204 153 312t321 108q174 0 263 -81t89 -237q0 -53 -8 -102q-16 -100 -54.5 -181t-99.5 -137t-141.5 -85t-182.5 -29q-170 0 -259 85t-89 243zM289 -64l1171 1557h250l-1172 -1557h-249zM418 922q0 -94 70 -94q64 0 85 56t37 150q12 74 12 102 q0 92 -71 93q-61 0 -81.5 -51.5t-37.5 -143.5q-14 -92 -14 -112zM1059 301q0 57 8 107q31 204 152 312t321 108q352 0 352 -320q0 -54 -8 -100q-22 -136 -83.5 -233t-162.5 -148t-233 -51q-170 0 -258 85t-88 240zM1372 295q0 -95 70 -95q64 0 85 55t37 153q12 74 13 102 q1 92 -71 92q-62 0 -86 -57t-34 -137q-2 -14 -5 -31.5t-6 -39t-3 -42.5z" />
<glyph unicode="&#x26;" horiz-adv-x="1972" d="M10 328q0 30 6 70q20 126 115 216t231 142q-166 116 -166 264q0 14 4 51q22 144 123 229.5t246 119.5t313 34q248 0 412 -54t164 -212q0 -14 -4 -48q-14 -86 -84 -158t-165 -123.5t-187 -80.5q82 -60 172 -139q87 78 129 172h512q-95 -243 -336 -443q265 -250 371 -368 h-686l-74 90q-73 -40 -161.5 -66t-179.5 -37t-177 -11q-108 0 -208 16.5t-184.5 56t-135 109.5t-50.5 170zM512 404q0 -68 48 -101t118 -33q94 0 180 64l-242 219q-49 -38 -72 -68.5t-32 -80.5zM676 1098q0 -55 30.5 -87.5t94.5 -76.5q92 52 129.5 81t46.5 83 q0 110 -127 110q-68 0 -117 -28t-57 -82z" />
<glyph unicode="'" horiz-adv-x="647" d="M194 805l101 625h307l-100 -625h-308z" />
<glyph unicode="(" d="M51 400q1 111 19 231q72 451 424 917h374q-148 -208 -243 -440t-133 -477q-24 -155 -25 -313q1 -328 111 -604h-375q-152 336 -152 686z" />
<glyph unicode=")" d="M-114 -286q300 424 376 917q24 154 24 313q0 106 -12 210t-36.5 203t-61.5 191h375q151 -337 151 -686q0 -116 -18 -231q-18 -116 -58 -238.5t-93 -235t-122 -223t-151 -220.5h-374z" />
<glyph unicode="*" horiz-adv-x="1100" d="M131 958l129 302l264 -136l-2 306h310l-97 -306l299 136l33 -302l-297 -50l176 -218l-278 -170l-96 266l-191 -266l-223 170l260 220z" />
<glyph unicode="+" horiz-adv-x="1229" d="M51 350l53 332h350l56 350h332l-56 -350h350l-52 -332h-351l-55 -350h-332l56 350h-351z" />
<glyph unicode="," d="M-78 -232l226 625h434l-334 -625h-326z" />
<glyph unicode="-" d="M49 372l55 357h574l-56 -357h-573z" />
<glyph unicode="." d="M53 0l61 393h447l-61 -393h-447z" />
<glyph unicode="/" d="M-230 -24l875 1478h363l-875 -1478h-363z" />
<glyph unicode="0" horiz-adv-x="1515" d="M45 557q1 76 13 158q34 212 142 380.5t283 263.5t404 95q142 0 255.5 -41t190.5 -117t117.5 -183t40.5 -243q-1 -74 -13 -155q-34 -222 -142 -389.5t-282 -258.5t-400 -91q-197 0 -334.5 71t-206 202t-68.5 308zM568 475q0 -86 31 -133t105 -47q80 0 126.5 55.5t67 136.5 t44.5 228q29 183 29 247q0 85 -30.5 128.5t-102.5 43.5q-82 0 -129 -53t-68.5 -133.5t-46.5 -232.5q-26 -158 -26 -240z" />
<glyph unicode="1" horiz-adv-x="1065" d="M41 1071l596 359h440l-227 -1430h-516l148 928l-355 -230z" />
<glyph unicode="2" horiz-adv-x="1212" d="M-62 0l64 402q254 116 454 233q102 63 164 123t76 141q0 199 -235 199q-179 0 -330 -62l59 373q260 45 459 45q250 0 416 -88.5t166 -296.5q-1 -39 -7 -84q-18 -116 -85 -212.5t-164 -172.5t-201 -133t-236 -119v-4h586l-55 -344h-1131z" />
<glyph unicode="3" horiz-adv-x="1212" d="M-53 35l51 331q163 -60 352 -59q109 0 173.5 27t76.5 102q0 140 -211 140q-75 0 -180 -15l51 313q74 -4 112 -4q114 0 198 21t98 100q0 143 -186 143q-170 0 -357 -54l51 319q188 55 480 55q136 0 264.5 -35t212 -113t83.5 -196q0 -38 -4 -58q-37 -244 -325 -323v-4 q247 -67 247 -273q0 -36 -4 -56q-24 -146 -130 -240.5t-256 -137t-312 -42.5q-128 0 -260 15.5t-225 43.5z" />
<glyph unicode="4" horiz-adv-x="1442" d="M-26 274l75 480l721 676h512l-129 -804h252l-55 -352h-252l-44 -274h-495l43 274h-628zM297 606h359l65 418z" />
<glyph unicode="5" horiz-adv-x="1212" d="M-20 37l50 325q180 -42 296 -42q256 0 280 164q0 174 -254 174q-121 0 -262 -34l129 806h1010l-53 -332h-539l-35 -222q56 6 160 6q108 0 195.5 -43t136.5 -125t49 -190q-1 -38 -7 -80q-27 -172 -136.5 -277t-262.5 -148t-327 -43q-210 0 -430 61z" />
<glyph unicode="6" horiz-adv-x="1401" d="M28 551q0 75 11 133q39 246 164 420t313 262t412 88q254 0 430 -39l-52 -329q-106 27 -168 38q-62 10 -180 10q-138 0 -246 -66t-130 -218q122 86 334 86q89 0 166.5 -24.5t137.5 -73t94 -119.5t34 -162q0 -38 -6 -78q-26 -167 -134 -281t-261 -168t-319 -54 q-138 0 -248 40t-190 117.5t-121 184t-41 233.5zM516 428q0 -64 38 -105t110 -41q81 0 136.5 55.5t69.5 141.5q0 187 -147 187q-84 0 -136.5 -53t-66.5 -146q-4 -25 -4 -39z" />
<glyph unicode="7" horiz-adv-x="1212" d="M-43 0l772 1036h-643l64 394h1163l-63 -394l-678 -1036h-615z" />
<glyph unicode="8" horiz-adv-x="1401" d="M-22 326q0 14 4 55q46 281 342 346l2 4q-108 36 -163 97.5t-55 162.5q0 32 6 72q24 144 132 231.5t261 123.5t319 36q250 0 417.5 -77t167.5 -255q0 -39 -4 -59q-14 -90 -55 -154.5t-105 -106.5q-63 -43 -151 -73l2 2l-2 -4q244 -65 244 -279q0 -32 -7 -67 q-17 -112 -89 -192t-177 -126.5t-227 -66.5t-248 -20q-114 0 -221 17.5t-197 58.5t-143 109.5t-53 164.5zM506 412q0 -142 133 -142q82 0 131 54t62 139q4 28 4 43q0 64 -33 101.5t-105 37.5q-82 0 -128 -51t-60 -135q-4 -33 -4 -47zM604 1026q0 -165 127 -168 q68 0 115.5 46t58.5 118q-1 162 -121 162q-71 0 -119.5 -45t-60.5 -113z" />
<glyph unicode="9" horiz-adv-x="1401" d="M64 14l52 330q106 -28 168 -38.5t181 -10.5q88 0 167.5 27.5t136.5 90.5t73 167q-120 -86 -336 -86q-86 0 -165 25t-139.5 74t-94 120t-33.5 161q0 32 6 76q27 166 134.5 280.5t259.5 169.5q152 54 318 54q138 0 250 -41t191 -117t120 -182t41 -236q0 -76 -10 -132 q-39 -246 -164.5 -420t-313.5 -262t-412 -88q-152 0 -247 10t-183 28zM551 950q-1 -186 147 -186q84 0 136.5 53t66.5 145q4 30 4 40q0 65 -37.5 105t-107.5 40q-82 0 -138.5 -55.5t-70.5 -141.5z" />
<glyph unicode=":" d="M53 0l61 393h447l-61 -393h-447zM160 674l63 393h447l-64 -393h-446z" />
<glyph unicode=";" d="M-78 -232l226 625h434l-334 -625h-326zM160 674l63 393h447l-64 -393h-446z" />
<glyph unicode="&#x3c;" horiz-adv-x="1229" d="M53 364l49 308l1096 405l-47 -305l-680 -254l598 -254l-47 -305z" />
<glyph unicode="=" horiz-adv-x="1229" d="M12 100l52 332h1032l-52 -332h-1032zM90 600l54 332h1032l-54 -332h-1032z" />
<glyph unicode="&#x3e;" horiz-adv-x="1229" d="M-10 -41l47 305l680 254l-598 254l47 305l968 -405l-48 -308z" />
<glyph unicode="?" horiz-adv-x="1175" d="M146 1030l54 348q82 25 158 42.5t148 25.5t152 8q116 0 231 -24.5t198 -90.5t83 -180q0 -16 -4 -49q-16 -106 -79.5 -176.5t-175 -146.5t-162.5 -127.5t-57 -131.5h-410q29 140 79.5 215t109.5 114t107 72t55 85q0 52 -48 68q-49 16 -141 16q-68 0 -153 -21t-145 -47z M180 0l60 381h446l-60 -381h-446z" />
<glyph unicode="@" horiz-adv-x="1638" d="M51 602q1 52 11 127q26 164 108.5 299.5t208 230.5t280 145t324.5 50q200 0 346.5 -72.5t222.5 -194t76 -261.5q0 -38 -6 -78q-22 -141 -101 -246t-182 -170.5t-201 -96t-159 -30.5q-103 1 -103 101h-4q-76 -100 -220 -101q-91 0 -157.5 40.5t-101.5 110.5t-35 156 q0 34 6 72q19 119 91.5 222.5t181.5 166.5t231 63q162 0 230 -122l34 84h195l-163 -455q-16 -33 -24 -73q0 -21 6 -30q6 -10 26 -10q74 0 136 79t86 231q6 36 7 72q0 160 -123.5 238.5t-335.5 78.5q-162 0 -300 -70t-227 -193.5t-114 -275.5q-6 -40 -6 -76q0 -122 60.5 -216 t169.5 -146t247 -52q256 0 434 107h246q-75 -88 -152.5 -148.5t-168.5 -102.5t-187.5 -61t-208.5 -19q-149 0 -276 44.5t-218 128t-140.5 199.5t-49.5 254zM649 700q-1 -138 131 -137q76 0 126 47t60 111q0 145 -126 145q-72 0 -124 -42q-53 -44 -67 -124z" />
<glyph unicode="A" horiz-adv-x="1706" d="M-133 0l729 1430h756l282 -1430h-575l-45 309h-463l-137 -309h-547zM682 654h318l-82 468h-4z" />
<glyph unicode="B" horiz-adv-x="1593" d="M0 0l228 1430h898q192 0 316 -68t124 -222q0 -29 -6 -63q-22 -144 -110 -229q-88 -84 -240 -121v-4q127 -18 201 -99.5t74 -185.5q-1 -16 -5 -40q-26 -168 -120 -256t-224 -115q-128 -27 -306 -27h-830zM563 295h143q86 0 153.5 35.5t78.5 111.5q0 86 -48 116t-134 30 h-148zM656 882h136q200 0 224 138q0 139 -166 139h-150z" />
<glyph unicode="C" horiz-adv-x="1327" d="M41 590q0 68 12 145q28 175 116.5 310.5t221 226t294.5 136.5t337 46q102 0 177 -10t206 -35l-59 -377q-158 54 -266 54q-116 0 -217 -42t-167 -123t-84 -194q-6 -43 -6 -75q0 -96 42 -163t119 -100t179 -33q136 0 306 56l-60 -379q-216 -57 -404 -57q-217 0 -386.5 68.5 t-265 207t-95.5 338.5z" />
<glyph unicode="D" horiz-adv-x="1669" d="M0 0l228 1430h804q292 0 447 -112t155 -396q0 -90 -18 -212q-41 -258 -158 -417t-287.5 -226t-388.5 -67h-782zM606 356h138q96 0 156 41.5t92 120t52 207.5q14 85 15 157q0 110 -46 163t-155 53h-135z" />
<glyph unicode="E" horiz-adv-x="1403" d="M-18 0l227 1430h1239l-56 -344h-702l-32 -204h671l-53 -344h-672l-30 -194h716l-55 -344h-1253z" />
<glyph unicode="F" horiz-adv-x="1366" d="M-18 0l227 1430h1225l-56 -344h-676l-36 -232h655l-55 -344h-656l-80 -510h-548z" />
<glyph unicode="G" horiz-adv-x="1593" d="M41 590q0 68 12 145q28 175 116.5 310.5t221 226t294.5 136.5t337 46q312 0 526 -53l-59 -385q-58 36 -155.5 59t-209.5 23q-138 0 -247 -46t-179 -136t-90 -216q-8 -43 -8 -96q0 -124 60 -198t190 -74q84 0 118 12l60 381h471l-107 -672q-146 -41 -289 -59t-315 -18 q-217 0 -386.5 68.5t-265 207t-95.5 338.5z" />
<glyph unicode="H" horiz-adv-x="1669" d="M0 0l228 1430h548l-80 -494h367l80 494h549l-228 -1430h-548l82 514h-367l-82 -514h-549z" />
<glyph unicode="I" d="M2 0l228 1430h548l-227 -1430h-549z" />
<glyph unicode="J" horiz-adv-x="985" d="M-90 26l62 388q45 -32 116 -33q102 0 162 55q60 56 74 144l135 850h549l-156 -980q-15 -100 -59 -186t-118 -151t-181.5 -101t-245.5 -36q-153 0 -338 50z" />
<glyph unicode="K" horiz-adv-x="1669" d="M-18 0l227 1430h549l-90 -562h4l432 562h624l-588 -670l406 -760h-655l-260 606h-5l-96 -606h-548z" />
<glyph unicode="L" horiz-adv-x="1366" d="M0 0l228 1430h548l-160 -1008h674l-68 -422h-1222z" />
<glyph unicode="M" horiz-adv-x="2199" d="M0 0l228 1430h810l62 -783h4l309 783h809l-227 -1430h-492l170 1122h-4l-459 -1122h-456l-94 1122h-8l-185 -1122h-467z" />
<glyph unicode="N" horiz-adv-x="1745" d="M-10 0l227 1430h821l105 -1008h4l159 1008h472l-228 -1430h-806l-116 1036h-4l-163 -1036h-471z" />
<glyph unicode="O" horiz-adv-x="1669" d="M37 553q0 76 12 162q28 179 103.5 317t192.5 232t271 142t342 48q220 0 376 -66t237 -197t81 -319q0 -76 -12 -157q-28 -182 -103.5 -320t-194 -231.5t-274.5 -140.5t-343 -47q-220 0 -374.5 65t-234 195t-79.5 317zM608 561q0 -241 172 -241q100 0 159 61t83.5 140.5 t44.5 193.5q15 103 15 153q0 242 -177 242q-132 0 -194 -119t-89 -276q-14 -83 -14 -154z" />
<glyph unicode="P" horiz-adv-x="1630" d="M0 0l228 1430h944q114 0 216.5 -37.5t170 -126t67.5 -230.5q0 -52 -8 -98q-29 -180 -117.5 -298t-216.5 -173t-276 -55h-394l-65 -412h-549zM652 744h120q120 0 199 38t96 146q0 104 -62.5 137t-176.5 33h-120z" />
<glyph unicode="Q" horiz-adv-x="1669" d="M35 551q0 64 14 164q28 179 103.5 317t192.5 232t271 142t342 48q220 0 376 -66t237 -197t81 -319q0 -75 -12 -157q-70 -453 -428 -635l250 -369h-598l-162 265q-212 4 -362 70t-227.5 193t-77.5 312zM608 561q0 -241 172 -241q100 0 159 61t83.5 140.5t44.5 193.5 q15 103 15 153q0 242 -177 242q-132 0 -194 -119t-89 -276q-14 -83 -14 -154z" />
<glyph unicode="R" horiz-adv-x="1593" d="M-18 0l227 1430h887q498 0 498 -310q0 -36 -7 -72q-46 -296 -401 -378l-2 -4q151 -26 219 -154q26 -64 29.5 -123t6.5 -197t17 -192h-572q-2 14 -2 51q0 32 3.5 103.5t3.5 117.5q-1 104 -15 140q-15 46 -49.5 60t-93.5 14h-123l-78 -486h-548zM633 805h143q68 0 117 10 t85 44.5t46 102.5q0 90 -49 119t-141 29h-152z" />
<glyph unicode="S" horiz-adv-x="1403" d="M-30 43l58 371q212 -94 478 -94q107 0 180 24t80 74q0 56 -113 87t-242 64.5t-220 110t-91 228.5q0 38 6 83q28 182 153 285.5t293 140.5t362 37q232 0 466 -49l-59 -367q-189 72 -411 72q-100 0 -170 -17t-80 -77q0 -54 106.5 -82t242 -61t227 -109t91.5 -228 q0 -38 -6 -82q-28 -179 -147 -286t-282.5 -149.5t-342.5 -42.5q-158 0 -293 16q-134 15 -286 51z" />
<glyph unicode="T" horiz-adv-x="1556" d="M78 1008l68 422h1515l-67 -422h-484l-160 -1008h-548l159 1008h-483z" />
<glyph unicode="U" horiz-adv-x="1630" d="M76 446q0 46 10 115l140 869h548l-135 -848q-6 -42 -6 -78q0 -160 139 -160q100 0 146 60t65 176l135 850h537l-133 -840q-36 -223 -144.5 -359.5t-276.5 -195.5q-169 -59 -395 -59q-138 0 -252 26.5t-199.5 84t-132 147.5t-46.5 212z" />
<glyph unicode="V" horiz-adv-x="1630" d="M96 1430h588l129 -856h4l405 856h562l-756 -1430h-649z" />
<glyph unicode="W" horiz-adv-x="2275" d="M92 1430h514l29 -914h4l375 914h526l78 -914h4l322 914h489l-571 -1430h-590l-92 934h-4l-375 -934h-603z" />
<glyph unicode="X" horiz-adv-x="1706" d="M-125 0l629 733l-340 697h632l146 -422l297 422h577l-589 -697l399 -733h-637l-193 484l-325 -484h-596z" />
<glyph unicode="Y" horiz-adv-x="1554" d="M94 1430h596l127 -598h4l322 598h567l-694 -992l-70 -438h-548l69 438z" />
<glyph unicode="Z" horiz-adv-x="1403" d="M-62 0l70 434l799 627h-676l59 369h1274l-70 -434l-776 -615h701l-59 -381h-1322z" />
<glyph unicode="[" horiz-adv-x="796" d="M-80 -286l291 1834h663l-46 -294h-271l-197 -1246h271l-47 -294h-664z" />
<glyph unicode="\" d="M4 1454h364l406 -1478h-360z" />
<glyph unicode="]" horiz-adv-x="796" d="M-82 -286l47 294h271l196 1246h-270l47 294h663l-290 -1834h-664z" />
<glyph unicode="^" horiz-adv-x="1229" d="M114 682l476 748h299l237 -748h-315l-127 404l-254 -404h-316z" />
<glyph unicode="_" horiz-adv-x="1024" d="M-144 -256l17 102h1024l-17 -102h-1024z" />
<glyph unicode="`" horiz-adv-x="569" d="M-28 1536h484l152 -320h-284z" />
<glyph unicode="a" horiz-adv-x="1327" d="M-30 236q0 16 4 53q20 118 79.5 196t146 120.5t183.5 59.5t205 17q36 0 75 -3t71 -6t52 -5q0 94 -66 124q-68 29 -182 29q-90 0 -187 -24.5t-183 -65.5l47 299q130 35 220.5 48.5t234.5 13.5q162 0 291 -27t214 -106t85 -224q0 -40 -6 -86l-103 -649h-479l24 154h-4 q-66 -88 -165 -133t-211 -45q-148 0 -247 65t-99 195zM454 348q0 -56 25 -79t80 -23q76 0 127.5 57.5t63.5 132.5l4 33h-52q-104 0 -170 -23t-78 -98z" />
<glyph unicode="b" horiz-adv-x="1442" d="M0 0l244 1536h516l-96 -606h4q139 162 346 162q130 0 216 -53t125 -145.5t39 -211.5q0 -56 -10 -131q-26 -162 -94 -292t-186 -206.5t-280 -76.5q-86 0 -146 21.5t-100.5 70t-63.5 126.5h-4l-31 -194h-479zM580 450q0 -130 100 -130q130 0 168 231q8 61 8 90 q0 131 -100 131q-78 0 -115 -63t-53 -171q-8 -54 -8 -88z" />
<glyph unicode="c" horiz-adv-x="1138" d="M14 430q0 52 10 123q42 268 231 403.5t515 135.5q218 0 368 -46l-48 -315q-110 53 -224 53q-118 0 -197 -61t-97 -178q-4 -19 -4 -55q0 -98 58 -153t160 -55q132 0 250 64l-51 -318q-175 -52 -391 -52q-189 0 -318.5 53t-195.5 155t-66 246z" />
<glyph unicode="d" horiz-adv-x="1442" d="M16 398q0 73 12 153q24 150 91 272.5t181 195.5t268 73q210 0 296 -162h4l96 606h516l-243 -1536h-479l30 194h-4q-71 -118 -161 -168q-89 -50 -217 -50q-201 0 -295.5 114t-94.5 308zM557 454q1 -134 103 -134q126 0 161 218q11 60 11 103q0 131 -105 131 q-129 0 -162 -221q-8 -45 -8 -97z" />
<glyph unicode="e" horiz-adv-x="1290" d="M10 430q0 48 10 123q42 268 231 403.5t515 135.5q477 0 477 -453q0 -66 -14 -166l-11 -63h-712q0 -95 67 -129.5t191 -34.5q222 0 360 68l-42 -277q-205 -61 -492 -61q-189 0 -319 53t-195.5 155t-65.5 246zM538 635h269q6 33 6 77q-1 134 -103 134q-80 0 -122 -64.5 t-50 -146.5z" />
<glyph unicode="f" horiz-adv-x="948" d="M18 760l50 307h188l12 90q25 138 98 228.5t182.5 132.5t245.5 42q174 0 314 -36l-45 -285q-59 15 -111 15q-53 0 -97.5 -35t-53.5 -97l-9 -55h220l-50 -307h-218l-122 -760h-536l121 760h-189z" />
<glyph unicode="g" horiz-adv-x="1442" d="M-51 -389l55 344q70 -46 174 -74.5t211 -28.5q171 0 267 78t122 248h-4q-152 -178 -378 -178q-193 0 -287.5 111t-94.5 293q0 56 10 126q38 246 176 404t372 158q90 0 161.5 -28t114 -82t45.5 -132h4l35 217h483l-153 -961q-25 -157 -106 -282t-245.5 -201.5 t-416.5 -76.5q-328 0 -545 65zM568 459q0 -127 100 -127q136 0 168 206q8 56 8 86q0 136 -106 136q-128 0 -162 -215q-8 -58 -8 -86z" />
<glyph unicode="h" horiz-adv-x="1403" d="M-8 0l244 1536h516l-96 -602h4q50 68 144 113t200 45q325 0 325 -264q0 -42 -6 -86l-117 -742h-516l98 614l3.5 31.5t2.5 34.5q0 80 -73 80q-61 0 -83 -40t-32 -106l-98 -614h-516z" />
<glyph unicode="i" horiz-adv-x="721" d="M0 0l170 1067h516l-170 -1067h-516zM186 1180l58 356h516l-58 -356h-516z" />
<glyph unicode="j" horiz-adv-x="721" d="M-260 -422l49 301q34 -14 82 -14q55 0 88 38.5t41 94.5l170 1069h516l-178 -1116q-21 -136 -85.5 -227t-160.5 -134.5t-213 -43.5q-170 0 -309 32zM186 1180l58 356h516l-58 -356h-516z" />
<glyph unicode="k" horiz-adv-x="1517" d="M0 0l244 1536h516l-142 -893h4l363 424h584l-437 -471l281 -596h-602l-209 518h-4l-82 -518h-516z" />
<glyph unicode="l" horiz-adv-x="721" d="M0 0l244 1536h516l-244 -1536h-516z" />
<glyph unicode="m" horiz-adv-x="2089" d="M-14 0l170 1067h487l-31 -185h4q62 107 166 158.5t232 51.5q118 0 204.5 -46t100.5 -136h4q26 58 88 99t138.5 62t144.5 21q186 0 256 -71t70 -195q0 -60 -21 -187l-101 -639h-516l98 614q6 54 7 64q0 82 -76 82q-59 0 -81 -40q-24 -40 -32 -106l-98 -614h-516l98 614 l3.5 31.5t2.5 34.5q0 80 -73 80q-61 0 -83 -40t-32 -106l-98 -614h-516z" />
<glyph unicode="n" horiz-adv-x="1403" d="M-8 0l170 1067h487l-31 -185h4q61 106 163 158q103 52 219 52q325 0 325 -264q0 -42 -6 -86l-117 -742h-516l98 614l3.5 31.5t2.5 34.5q0 80 -73 80q-61 0 -83 -40t-32 -106l-98 -614h-516z" />
<glyph unicode="o" horiz-adv-x="1403" d="M14 430q0 51 10 123q42 268 231 403.5t515 135.5q290 0 439 -108t149 -322q0 -58 -8 -109q-30 -183 -127 -313t-256.5 -197t-372.5 -67q-189 0 -318.5 53t-195.5 155t-66 246zM559 406q0 -124 84 -124q69 0 103 68t55 203q10 69 10 113q0 118 -88 118q-69 0 -99.5 -58 t-49.5 -173q-14 -93 -15 -147z" />
<glyph unicode="p" horiz-adv-x="1442" d="M-68 -430l238 1497h479l-33 -195h4q73 118 162.5 169t217.5 51q202 0 296 -115t94 -309q0 -71 -12 -152q-17 -111 -58.5 -208.5t-109.5 -172.5t-162 -117t-210 -42q-208 0 -296 161h-4l-90 -567h-516zM576 424q0 -129 104 -129q74 0 110 59q36 60 52 162q8 42 8 96 q0 136 -102 136q-126 0 -162 -220q-10 -62 -10 -104z" />
<glyph unicode="q" horiz-adv-x="1442" d="M12 385q0 56 10 131q40 253 179 414.5t381 161.5q128 0 202 -51t107 -169h4l33 195h479l-237 -1497h-516l90 567h-4q-139 -161 -349 -161q-193 0 -286 112t-93 297zM551 424q1 -129 101 -129q78 0 113.5 60.5t53.5 172.5q9 54 9 88q0 132 -101 132q-130 0 -168 -232 q-8 -44 -8 -92z" />
<glyph unicode="r" horiz-adv-x="1024" d="M0 0l170 1067h484l-40 -241h4q151 266 367 266q50 0 84 -10l-67 -428q-39 16 -115 16q-108 0 -199.5 -83t-109.5 -200l-62 -387h-516z" />
<glyph unicode="s" horiz-adv-x="1138" d="M-30 37l46 305q66 -44 165 -70t200 -26q76 0 135 16q58 18 64 54q0 38 -86 58t-195 45t-181.5 83t-72.5 172q0 36 4 57q32 206 220 283q187 78 435 78q170 0 380 -46l-46 -286q-172 61 -326 61h-5q-173 0 -185 -73q0 -32 78 -47t196 -37t192.5 -78t74.5 -168 q0 -36 -4 -56q-33 -206 -229 -296t-424 -90q-204 0 -436 61z" />
<glyph unicode="t" horiz-adv-x="948" d="M18 760l50 307h182l39 246l541 157l-64 -403h234l-50 -307h-233l-49 -301q0 -139 92 -139q66 0 122 18l-48 -308q-197 -54 -363 -54q-171 0 -255.5 74t-84.5 226q1 48 11 115l58 369h-182z" />
<glyph unicode="u" horiz-adv-x="1403" d="M43 326l119 741h516l-98 -615q-6 -30 -6 -65q0 -80 73 -80q61 0 82.5 39.5t32.5 105.5l98 615h516l-170 -1067h-487l29 184h-4q-60 -106 -162 -157t-220 -51q-325 0 -325 264q0 44 6 86z" />
<glyph unicode="v" horiz-adv-x="1290" d="M62 1067h528l20 -701h4l246 701h504l-494 -1069h-661z" />
<glyph unicode="w" horiz-adv-x="2048" d="M56 1067h505l13 -699h4l220 699h622l8 -699h4l225 699h471l-430 -1067h-644l-12 723h-4l-246 -723h-646z" />
<glyph unicode="x" horiz-adv-x="1366" d="M-127 0l441 574l-246 493h542l92 -319l195 319h506l-375 -485l260 -582h-546l-114 344l-228 -344h-527z" />
<glyph unicode="y" horiz-adv-x="1251" d="M-123 -418l47 304q64 -20 152 -21q74 0 122 28.5t54 71.5q0 70 -28 205.5t-30 149.5l-153 747h535l28 -655h4l232 655h496l-426 -893q-74 -160 -131 -262t-134 -186t-184.5 -132t-251.5 -48q-112 0 -332 36z" />
<glyph unicode="z" horiz-adv-x="1251" d="M-33 0l70 438l587 318l2 4h-520l50 307h1079l-69 -428l-562 -327v-5h524l-48 -307h-1113z" />
<glyph unicode="{" d="M12 512l37 238q150 0 170 130l61 386q14 92 68 156t123 95t127 31h270l-36 -225h-31q-74 0 -101.5 -34.5t-35.5 -90.5l-58 -360q-34 -196 -303 -205v-5q105 -4 171 -46t66 -158l-56 -360q-4 -28 -5 -42q1 -84 103 -84h30l-34 -224h-271q-84 0 -157.5 61t-73.5 169 q0 14 4 52l60 385q0 131 -128 131z" />
<glyph unicode="|" horiz-adv-x="454" d="M-51 -24l247 1560h344l-247 -1560h-344z" />
<glyph unicode="}" d="M-114 -286l34 224h31q74 0 102.5 35t36.5 91l58 360q34 196 302 204v5q-105 4 -171 46.5t-66 158.5l57 360q4 25 4 39q0 86 -104 86h-30l36 225h270q52 0 106 -26t90 -79t36 -128q0 -11 -4 -49l-62 -386q0 -130 130 -130l-38 -238q-150 0 -172 -131l-59 -385 q-16 -92 -69.5 -156t-121.5 -95t-126 -31h-270z" />
<glyph unicode="~" horiz-adv-x="1229" d="M127 553q127 195 287 195q52 0 105 -19t132 -57t111 -51t66 -13q56 0 103 37t99 103l31 -271q-83 -94 -143 -141t-144 -47q-53 0 -93.5 16t-104 51.5t-112 53.5t-112.5 18q-110 0 -194 -139z" />
<glyph unicode="&#xa0;" />
<glyph unicode="&#xa3;" horiz-adv-x="985" d="M-90 26l62 388q45 -32 116 -33q102 0 162 55q60 56 74 144l135 850h549l-156 -980q-15 -100 -59 -186t-118 -151t-181.5 -101t-245.5 -36q-153 0 -338 50z" />
<glyph unicode="&#xa4;" horiz-adv-x="1229" d="M30 312l124 106q-58 101 -58 221q0 38 6 78q28 167 148 299l-90 106l143 125l90 -107q153 94 313 95q167 -1 285 -95l123 107l106 -125l-122 -106q56 -95 55 -215q0 -41 -6 -84q-25 -168 -147 -297l92 -108l-146 -126l-90 109q-148 -97 -314 -97q-165 0 -282 95 l-125 -107zM406 672q0 -85 49 -137.5t133 -52.5q96 0 166.5 66.5t85.5 168.5q4 36 4 49q0 84 -49 135t-131 51q-96 0 -166 -66q-70 -65 -88 -169q-4 -33 -4 -45z" />
<glyph unicode="&#xa6;" horiz-adv-x="454" d="M-51 -24l98 614h344l-98 -614h-344zM98 922l98 614h344l-98 -614h-344z" />
<glyph unicode="&#xa7;" horiz-adv-x="1290" d="M-6 -297l47 301q70 -26 163.5 -43t174.5 -17q104 0 166.5 14t70.5 66q0 45 -96 83.5t-210 82t-191.5 117t-77.5 195.5q0 38 4 59q17 98 87 174.5t169 112.5q-119 64 -119 192q0 18 4 56q56 358 600 358q210 0 398 -45l-48 -295q-152 45 -298 45q-79 0 -126.5 -13.5 t-55.5 -63.5q0 -44 94 -80t205 -77t188 -112t77 -193q0 -39 -4 -59q-28 -177 -229 -279q105 -98 105 -206q0 -12 -4 -50q-34 -216 -217 -296t-415 -80q-140 0 -261 16t-201 37zM434 610q0 -56 55 -95.5t152.5 -77t110.5 -44.5q68 64 76 113q0 56 -49.5 95.5t-122 69 t-134.5 54.5q-76 -45 -88 -115z" />
<glyph unicode="&#xa8;" horiz-adv-x="1403" d="M-18 0l227 1430h1239l-56 -344h-702l-32 -204h671l-53 -344h-672l-30 -194h716l-55 -344h-1253zM389 1538l51 320h369l-51 -320h-369zM930 1538l51 320h369l-52 -320h-368z" />
<glyph unicode="&#xa9;" horiz-adv-x="1638" d="M82 600q0 63 8 115q32 198 158.5 369.5t312 270.5t385.5 99q180 0 325 -82t226.5 -224t81.5 -316q0 -52 -10 -117q-22 -150 -101.5 -285.5t-198.5 -237.5t-263.5 -159t-293.5 -57q-180 0 -324.5 82t-225 225t-80.5 317zM372 614q0 -116 44 -205t130 -138.5t206 -49.5 q132 0 245 64.5t186 177t95 252.5q8 46 8 100q0 114 -45 204t-131 139.5t-202 49.5q-136 0 -248.5 -64t-184 -176t-94.5 -253q-9 -51 -9 -101zM452 652q0 40 7 81q16 102 79.5 192.5t161.5 144.5t212 54q131 0 211.5 -83t80.5 -238h-208q-17 96 -97 96q-76 0 -124.5 -50.5 t-62.5 -131.5q-4 -29 -4 -41q0 -65 35 -106.5t93 -41.5q36 0 77 29.5t55 79.5h218q-48 -160 -160 -247q-114 -87 -242 -87q-152 0 -242 97.5t-90 251.5z" />
<glyph unicode="&#xab;" horiz-adv-x="1327" d="M37 553l303 443h393l-254 -443l115 -443h-394zM592 553l303 443h393l-254 -443l115 -443h-393z" />
<glyph unicode="&#xac;" horiz-adv-x="1229" d="M90 600l54 332h1032l-109 -684h-332l55 352h-700z" />
<glyph unicode="&#xad;" horiz-adv-x="569" d="M-39 1280l33 213h848l-33 -213h-848z" />
<glyph unicode="&#xae;" horiz-adv-x="1638" d="M82 600q0 63 8 115q32 198 158.5 369.5t312 270.5t385.5 99q180 0 325 -82t226.5 -224t81.5 -316q0 -52 -10 -117q-22 -150 -101.5 -285.5t-198.5 -237.5t-263.5 -159t-293.5 -57q-180 0 -324.5 82t-225 225t-80.5 317zM372 614q0 -116 44 -205t130 -138.5t206 -49.5 q132 0 245 64.5t186 177t95 252.5q8 46 8 100q0 114 -45 204t-131 139.5t-202 49.5q-136 0 -248.5 -64t-184 -176t-94.5 -253q-9 -51 -9 -101zM492 346l116 742h276q147 0 219.5 -41.5t72.5 -143.5q0 -28 -6 -59q-32 -210 -222 -222l119 -276h-231l-96 232h-5l-37 -232h-206 zM764 762h102q96 0 109 74q0 42 -33 54.5t-94 12.5h-62z" />
<glyph unicode="&#xaf;" d="M2 0l228 1430h548l-227 -1430h-549zM66 1538l50 320h370l-52 -320h-368zM606 1538l52 320h368l-51 -320h-369z" />
<glyph unicode="&#xb0;" horiz-adv-x="819" d="M154 1075q0 18 4 51q22 135 133 231.5t245 96.5q80 0 144.5 -36.5t100.5 -100t36 -139.5q0 -18 -4 -52q-14 -88 -70.5 -164t-138.5 -120t-170 -44q-80 0 -144 36.5t-100 100t-36 140.5zM342 1126q0 -68 33 -105.5t88 -37.5q59 0 108 41.5t57 101.5q0 68 -32.5 106 t-87.5 38q-60 0 -108 -42t-58 -102z" />
<glyph unicode="&#xb1;" horiz-adv-x="1229" d="M-4 0l53 332h1033l-54 -332h-1032zM80 534l53 332h351l26 166h332l-27 -166h351l-54 -332h-350l-24 -166h-332l24 166h-350z" />
<glyph unicode="&#xb2;" d="M2 0l228 1430h548l-227 -1430h-549z" />
<glyph unicode="&#xb3;" horiz-adv-x="721" d="M0 0l170 1067h516l-170 -1067h-516zM186 1180l58 356h516l-58 -356h-516z" />
<glyph unicode="&#xb5;" horiz-adv-x="1403" d="M-80 -454l242 1521h516l-98 -615q-6 -30 -6 -65q0 -80 73 -80q61 0 82.5 39.5t32.5 105.5l98 615h516l-170 -1067h-487l29 184h-4q-30 -63 -94.5 -115.5t-137.5 -68.5l-72 -454h-520z" />
<glyph unicode="&#xb6;" horiz-adv-x="1270" d="M96 1002q0 30 6 63q22 140 99.5 221t193 112.5t271.5 31.5h647l-279 -1756h-282l244 1542h-134l-244 -1542h-282l164 1041q-196 0 -300 75q-104 76 -104 212z" />
<glyph unicode="&#xb8;" horiz-adv-x="1290" d="M10 430q0 48 10 123q42 268 231 403.5t515 135.5q477 0 477 -453q0 -66 -14 -166l-11 -63h-712q0 -95 67 -129.5t191 -34.5q222 0 360 68l-42 -277q-205 -61 -492 -61q-189 0 -319 53t-195.5 155t-65.5 246zM280 1216l52 320h368l-51 -320h-369zM538 635h269q6 33 6 77 q-1 134 -103 134q-80 0 -122 -64.5t-50 -146.5zM821 1216l51 320h369l-51 -320h-369z" />
<glyph unicode="&#xb9;" horiz-adv-x="911" d="M84 1054q0 40 4 62q26 162 153 250t345 88q192 0 291.5 -70t99.5 -202q0 -32 -6 -66q-16 -107 -78 -183t-167.5 -115.5t-250.5 -39.5q-192 0 -291.5 72t-99.5 204zM450 1061q0 -70 60 -70q44 0 63.5 32.5t28.5 92.5q6 34 6 58q0 68 -59 67q-44 0 -62.5 -29.5t-30.5 -95.5 q0 -8 -1.5 -18t-3 -21t-1.5 -16z" />
<glyph unicode="&#xbb;" horiz-adv-x="1327" d="M10 110l254 443l-114 443h392l164 -443l-302 -443h-394zM565 110l254 443l-115 443h394l164 -443l-304 -443h-393z" />
<glyph unicode="&#xbc;" horiz-adv-x="721" d="M-260 -422l49 301q34 -14 82 -14q55 0 88 38.5t41 94.5l170 1069h516l-178 -1116q-21 -136 -85.5 -227t-160.5 -134.5t-213 -43.5q-170 0 -309 32zM186 1180l58 356h516l-58 -356h-516z" />
<glyph unicode="&#xbd;" horiz-adv-x="1403" d="M-30 43l58 371q212 -94 478 -94q107 0 180 24t80 74q0 56 -113 87t-242 64.5t-220 110t-91 228.5q0 38 6 83q28 182 153 285.5t293 140.5t362 37q232 0 466 -49l-59 -367q-189 72 -411 72q-100 0 -170 -17t-80 -77q0 -54 106.5 -82t242 -61t227 -109t91.5 -228 q0 -38 -6 -82q-28 -179 -147 -286t-282.5 -149.5t-342.5 -42.5q-158 0 -293 16q-134 15 -286 51z" />
<glyph unicode="&#xbe;" horiz-adv-x="1138" d="M-30 37l46 305q66 -44 165 -70t200 -26q76 0 135 16q58 18 64 54q0 38 -86 58t-195 45t-181.5 83t-72.5 172q0 36 4 57q32 206 220 283q187 78 435 78q170 0 380 -46l-46 -286q-172 61 -326 61q-178 1 -190 -73q0 -32 78 -47t196 -37t192.5 -78t74.5 -168q0 -36 -4 -56 q-33 -206 -229 -296t-424 -90q-204 0 -436 61z" />
<glyph unicode="&#xbf;" horiz-adv-x="721" d="M-4 1216l51 320h369l-52 -320h-368zM0 0l170 1067h516l-170 -1067h-516zM536 1216l52 320h368l-51 -320h-369z" />
<glyph unicode="&#xc0;" horiz-adv-x="1706" d="M-133 0l729 1430h756l282 -1430h-575l-45 309h-463l-137 -309h-547zM682 654h318l-82 468h-4z" />
<glyph unicode="&#xc1;" horiz-adv-x="1593" d="M0 0l228 1430h1238l-55 -344h-703l-32 -204h295q256 0 389 -74q133 -76 133 -276q0 -51 -8 -100q-24 -169 -119.5 -265t-231.5 -131q-136 -36 -304 -36h-830zM563 295h143q86 0 153.5 35.5t78.5 111.5q0 86 -48 116t-134 30h-148z" />
<glyph unicode="&#xc2;" horiz-adv-x="1593" d="M0 0l228 1430h898q192 0 316 -68t124 -222q0 -29 -6 -63q-22 -144 -110 -229q-88 -84 -240 -121v-4q127 -18 201 -99.5t74 -185.5q-1 -16 -5 -40q-26 -168 -120 -256t-224 -115q-128 -27 -306 -27h-830zM563 295h143q86 0 153.5 35.5t78.5 111.5q0 86 -48 116t-134 30 h-148zM656 882h136q200 0 224 138q0 139 -166 139h-150z" />
<glyph unicode="&#xc3;" horiz-adv-x="1366" d="M0 0l228 1430h1242l-67 -422h-695l-159 -1008h-549z" />
<glyph unicode="&#xc4;" horiz-adv-x="1593" d="M-142 -246l107 668h35q132 44 156 198l128 810h1332l-160 -1008h82l-106 -668h-529l39 246h-516l-39 -246h-529zM549 402h369l102 646h-303l-78 -495q-15 -97 -90 -151z" />
<glyph unicode="&#xc5;" horiz-adv-x="1403" d="M0 0l228 1430h1238l-55 -344h-703l-32 -204h672l-54 -344h-672l-30 -194h716l-54 -344h-1254z" />
<glyph unicode="&#xc6;" horiz-adv-x="2427" d="M-96 0l565 760l-293 670h604l191 -562h4l90 562h547l-90 -562h4l370 562h604l-505 -670l323 -760h-634l-199 606h-5l-96 -606h-546l96 606h-4l-392 -606h-634z" />
<glyph unicode="&#xc7;" horiz-adv-x="1327" d="M-58 43l60 371q199 -94 432 -94q90 0 162 34t80 90q0 71 -56 104q-56 32 -178 32h-198l49 317h193q242 1 258 105q0 108 -216 108q-202 0 -409 -72l59 367q237 49 459 49q282 0 468.5 -72t186.5 -276q0 -28 -6 -68q-17 -114 -115.5 -195.5t-226.5 -109.5 q274 -69 274 -285q0 -35 -4 -55q-22 -143 -132 -237t-268 -137t-322 -43q-278 0 -550 67z" />
<glyph unicode="&#xc8;" horiz-adv-x="1745" d="M-10 0l227 1430h477l-160 -1008h4l418 1008h822l-228 -1430h-477l164 1036h-4l-437 -1036h-806z" />
<glyph unicode="&#xc9;" horiz-adv-x="1745" d="M-10 0l227 1430h477l-160 -1008h4l418 1008h822l-228 -1430h-477l164 1036h-4l-437 -1036h-806zM649 1898h246q23 -106 159 -106q130 0 193 106h246q-26 -104 -99 -179t-172.5 -114t-203.5 -39q-102 0 -186 37t-133.5 112t-49.5 183z" />
<glyph unicode="&#xca;" horiz-adv-x="1669" d="M0 0l228 1430h548l-90 -562h4l432 562h625l-588 -670l405 -760h-654l-261 606h-4l-96 -606h-549z" />
<glyph unicode="&#xcb;" horiz-adv-x="1593" d="M-76 442q204 0 236 199l124 789h1332l-228 -1430h-548l160 1008h-275l-86 -537q-35 -228 -191 -361.5t-456 -133.5z" />
<glyph unicode="&#xcc;" horiz-adv-x="2199" d="M0 0l228 1430h810l62 -783h4l309 783h809l-227 -1430h-500l178 1122h-4l-459 -1122h-456l-94 1122h-8l-179 -1122h-473z" />
<glyph unicode="&#xcd;" horiz-adv-x="1669" d="M0 0l228 1430h548l-80 -494h367l80 494h549l-228 -1430h-548l82 514h-367l-82 -514h-549z" />
<glyph unicode="&#xce;" horiz-adv-x="1669" d="M37 553q0 76 12 162q28 179 103.5 317t192.5 232t271 142t342 48q220 0 376 -66t237 -197t81 -319q0 -76 -12 -157q-28 -182 -103.5 -320t-194 -231.5t-274.5 -140.5t-343 -47q-220 0 -374.5 65t-234 195t-79.5 317zM608 561q0 -241 172 -241q100 0 159 61t83.5 140.5 t44.5 193.5q15 103 15 153q0 242 -177 242q-132 0 -194 -119t-89 -276q-14 -83 -14 -154z" />
<glyph unicode="&#xcf;" horiz-adv-x="1669" d="M0 0l228 1430h1464l-228 -1430h-548l159 1008h-367l-159 -1008h-549z" />
<glyph unicode="&#xd0;" horiz-adv-x="1630" d="M0 0l228 1430h944q114 0 216.5 -37.5t170 -126t67.5 -230.5q0 -52 -8 -98q-29 -180 -117.5 -298t-216.5 -173t-276 -55h-394l-65 -412h-549zM652 744h120q120 0 199 38t96 146q0 104 -62.5 137t-176.5 33h-120z" />
<glyph unicode="&#xd1;" horiz-adv-x="1327" d="M41 590q0 68 12 145q28 175 116.5 310.5t221 226t294.5 136.5t337 46q102 0 177 -10t206 -35l-59 -377q-158 54 -266 54q-116 0 -217 -42t-167 -123t-84 -194q-6 -43 -6 -75q0 -96 42 -163t119 -100t179 -33q136 0 306 56l-60 -379q-216 -57 -404 -57q-217 0 -386.5 68.5 t-265 207t-95.5 338.5z" />
<glyph unicode="&#xd2;" horiz-adv-x="1556" d="M78 1008l68 422h1515l-67 -422h-484l-160 -1008h-548l159 1008h-483z" />
<glyph unicode="&#xd3;" horiz-adv-x="1593" d="M76 1430h596q22 -71 59.5 -197t86.5 -289l48 -162l350 648h550l-879 -1430h-557l212 299z" />
<glyph unicode="&#xd4;" horiz-adv-x="2162" d="M39 598q0 48 10 117q30 189 136 322t277.5 201t395.5 68h54l20 124h548l-20 -124h54q200 0 341 -54.5t215 -162t74 -259.5q0 -44 -10 -115q-22 -144 -87.5 -254.5t-170 -186t-242.5 -113.5t-307 -38h-53l-20 -123h-550l21 123h-53q-200 0 -342.5 53.5t-216.5 160 t-74 261.5zM576 637q0 -88 32 -147.5t107 -59.5h71l90 570h-71q-94 0 -149.5 -89t-73.5 -196q-6 -38 -6 -78zM1306 430h72q94 0 151 90t73 195q6 35 6 79q0 88 -32 147t-108 59h-72z" />
<glyph unicode="&#xd5;" horiz-adv-x="1745" d="M-104 0l628 733l-340 697h633l145 -422l298 422h577l-590 -697l399 -733h-636l-193 484l-325 -484h-596z" />
<glyph unicode="&#xd6;" horiz-adv-x="1669" d="M0 0l228 1430h548l-160 -1008h367l160 1008h549l-160 -1008h82l-106 -668h-529l39 246h-1018z" />
<glyph unicode="&#xd7;" horiz-adv-x="1554" d="M98 788q0 28 8 94l88 548h550l-74 -462q0 -96 96 -96q52 0 105 24t77 40l80 494h549l-227 -1430h-549l81 514q-42 -26 -151.5 -64t-261.5 -38q-108 0 -192.5 45t-131.5 131t-47 200z" />
<glyph unicode="&#xd8;" horiz-adv-x="2199" d="M0 0l228 1430h516l-160 -1008h233l160 1008h495l-159 -1008h233l160 1008h516l-227 -1430h-1995z" />
<glyph unicode="&#xd9;" horiz-adv-x="2199" d="M0 0l228 1430h516l-160 -1008h233l160 1008h495l-159 -1008h233l160 1008h516l-160 -1008h82l-106 -668h-528l38 246h-1548z" />
<glyph unicode="&#xda;" horiz-adv-x="1706" d="M78 1008l68 422h743l-65 -412h356q130 0 233 -43t161 -135t58 -230q0 -44 -10 -118q-22 -136 -85 -233t-150 -154t-181 -81t-186 -24h-908l160 1008h-194zM700 332h82q124 0 200.5 33.5t92.5 136.5q0 112 -62.5 148t-172.5 36h-84z" />
<glyph unicode="&#xdb;" horiz-adv-x="2351" d="M2 0l228 1430h548l-66 -412h357q130 0 232.5 -43t161.5 -135t59 -230q0 -48 -10 -118q-22 -136 -85 -233t-150 -154t-181 -81t-186 -24h-908zM590 332h82q124 0 200 33.5t92 136.5q0 112 -62 148t-173 36h-84zM1596 0l226 1430h550l-228 -1430h-548z" />
<glyph unicode="&#xdc;" horiz-adv-x="1593" d="M0 0l228 1430h548l-66 -412h357q130 0 232.5 -43t161.5 -135t59 -230q0 -48 -10 -118q-22 -136 -85 -233t-150 -154t-181 -81t-186 -24h-908zM588 332h82q124 0 200 33.5t92 136.5q0 112 -62 148t-173 36h-84z" />
<glyph unicode="&#xdd;" horiz-adv-x="1327" d="M-58 33l60 379q122 -74 312 -74q140 0 244 59.5t150 178.5h-462l49 319h451q-16 102 -105 153.5t-225 51.5q-74 0 -162 -18t-150 -48l60 375q118 24 202 34.5t193 10.5q212 0 384 -67.5t271 -202t99 -326.5q-1 -48 -11 -123q-30 -187 -117.5 -330t-219.5 -238.5 t-295 -142.5q-162 -48 -344 -48q-192 0 -384 57z" />
<glyph unicode="&#xde;" horiz-adv-x="2388" d="M2 0l228 1430h548l-80 -494h195q50 126 127.5 223t180.5 163t229.5 99t275.5 33q208 0 355.5 -66t224 -195t76.5 -315q0 -60 -15 -163q-28 -182 -101.5 -320.5t-185.5 -231.5t-261 -140t-327 -47q-203 0 -346.5 60t-220 181t-81.5 297h-191l-82 -514h-549zM1394 538 q0 -218 134 -218q80 0 130 61t74 145q24 85 40 189q16 101 16 178q0 217 -136 217q-174 0 -241 -395q-17 -111 -17 -177z" />
<glyph unicode="&#xdf;" horiz-adv-x="1593" d="M-86 0q32 56 77 189t70 196t70 127q103 126 265 154l2 4q-290 71 -290 307q0 33 6 71q22 135 101.5 219.5t208 123.5t305.5 39h887l-228 -1430h-548l78 486h-124q-60 0 -99 -14t-69 -60q-26 -37 -47.5 -103.5t-50.5 -170.5q-28 -104 -42 -138h-572zM649 962 q0 -70 26.5 -104t67.5 -43.5t105 -9.5h143l49 305h-151q-101 0 -163 -30t-77 -118z" />
<glyph unicode="&#xe0;" horiz-adv-x="1327" d="M-30 236q0 16 4 53q20 118 79.5 196t146 120.5t183.5 59.5t205 17q36 0 75 -3t71 -6t52 -5q0 94 -66 124q-68 29 -182 29q-90 0 -187 -24.5t-183 -65.5l47 299q130 35 220.5 48.5t234.5 13.5q162 0 291 -27t214 -106t85 -224q0 -40 -6 -86l-103 -649h-479l24 154h-4 q-66 -88 -165 -133t-211 -45q-148 0 -247 65t-99 195zM454 348q0 -56 25 -79t80 -23q76 0 127.5 57.5t63.5 132.5l4 33h-52q-104 0 -170 -23t-78 -98z" />
<glyph unicode="&#xe1;" horiz-adv-x="1403" d="M41 428q0 54 10 125q26 165 51.5 284t73.5 243t129 231.5t201 177.5q92 54 197 83.5t239.5 52.5t195 38t89.5 47l203 -286q-55 -57 -147.5 -88.5t-255.5 -62t-251 -52t-162 -64.5q-114 -80 -170 -178h4q59 50 159 81q101 32 217 32q164 0 284 -49t185 -147 q65 -96 65 -238q0 -56 -8 -105q-30 -183 -125.5 -313t-252.5 -197t-366 -67q-184 0 -311 52t-190.5 153t-63.5 247zM576 400q0 -118 80 -118q68 0 100 68t53 203q12 87 12 117q0 114 -86 114q-65 0 -94.5 -57.5t-48.5 -173.5q-16 -111 -16 -153z" />
<glyph unicode="&#xe2;" horiz-adv-x="1327" d="M-8 0l170 1067h798q148 0 243 -49.5t95 -165.5q0 -15 -4 -47q-16 -108 -82 -171q-67 -64 -184 -92v-4q66 -8 113 -41t70.5 -85t23.5 -115q-20 -126 -91.5 -191.5t-170.5 -85.5t-235 -20h-746zM518 219h29q64 0 115.5 27.5t60.5 83.5q0 64 -37 86q-36 22 -100 22h-33z M588 660h24q154 0 170 102q0 102 -128 102h-34z" />
<glyph unicode="&#xe3;" horiz-adv-x="1138" d="M-8 0l170 1067h1024l-52 -315h-508l-118 -752h-516z" />
<glyph unicode="&#xe4;" horiz-adv-x="1345" d="M-114 -184l77 500h27q83 26 102 147l96 604h1131l-121 -751h62l-78 -500h-500l28 184h-296l-29 -184h-499zM504 299h184l76 483h-150l-59 -384q-12 -66 -51 -99z" />
<glyph unicode="&#xe5;" horiz-adv-x="1290" d="M10 430q0 48 10 123q42 268 231 403.5t515 135.5q477 0 477 -453q0 -66 -14 -166l-11 -63h-712q0 -95 67 -129.5t191 -34.5q222 0 360 68l-42 -277q-205 -61 -492 -61q-189 0 -319 53t-195.5 155t-65.5 246zM538 635h269q6 33 6 77q-1 134 -103 134q-80 0 -122 -64.5 t-50 -146.5z" />
<glyph unicode="&#xe6;" horiz-adv-x="2048" d="M-116 0l390 576l-200 491h557l137 -445h4l72 445h496l-72 -445h4l280 445h558l-357 -491l207 -576h-582l-126 498h-5l-77 -498h-496l78 498h-4l-283 -498h-581z" />
<glyph unicode="&#xe7;" horiz-adv-x="1138" d="M-43 28l47 300q62 -36 161 -57t189 -21q72 0 126 25t60 69q0 50 -42 69t-134 19h-188l39 238h176q186 0 199 76q0 48 -44 64t-124 16q-167 0 -338 -74l47 296q68 19 181.5 31.5t244.5 12.5q160 0 279.5 -21t193.5 -79t74 -164q0 -16 -4 -54q-8 -56 -46.5 -103t-95 -78 t-120.5 -46q98 -22 155 -74.5t57 -136.5q0 -15 -4 -43q-18 -106 -99 -176.5t-209 -104.5t-290 -36q-108 0 -200 4.5t-165.5 16t-125.5 31.5z" />
<glyph unicode="&#xe8;" horiz-adv-x="1478" d="M-8 0l170 1067h460l-120 -629h4l320 629h626l-170 -1067h-461l123 652h-2l-334 -652h-616z" />
<glyph unicode="&#xe9;" horiz-adv-x="1478" d="M-8 0l170 1067h460l-120 -629h4l320 629h626l-170 -1067h-461l123 652h-2l-334 -652h-616zM448 1536h246q23 -106 160 -106q129 0 192 106h246q-26 -104 -99 -179.5t-172 -114t-204 -38.5q-102 0 -185.5 36.5t-133.5 111.5t-50 184z" />
<glyph unicode="&#xea;" horiz-adv-x="1517" d="M0 0l170 1067h516l-72 -445h4l367 445h584l-439 -491l283 -576h-602l-213 498h-4l-78 -498h-516z" />
<glyph unicode="&#xeb;" horiz-adv-x="1345" d="M-84 336q156 0 178 148l94 583h1131l-170 -1067h-516l119 752h-132l-52 -334q-70 -442 -601 -442z" />
<glyph unicode="&#xec;" horiz-adv-x="1820" d="M-8 0l170 1067h680l53 -522h4l217 522h678l-170 -1067h-460l130 694h-4l-319 -694h-349l-92 694h-6l-90 -694h-442z" />
<glyph unicode="&#xed;" horiz-adv-x="1403" d="M-8 0l170 1067h516l-60 -373h183l59 373h516l-170 -1067h-516l62 387h-182l-62 -387h-516z" />
<glyph unicode="&#xee;" horiz-adv-x="1403" d="M14 430q0 51 10 123q42 268 231 403.5t515 135.5q290 0 439 -108t149 -322q0 -58 -8 -109q-30 -183 -127 -313t-256.5 -197t-372.5 -67q-189 0 -318.5 53t-195.5 155t-66 246zM559 406q0 -124 84 -124q69 0 103 68t55 203q10 69 10 113q0 118 -88 118q-69 0 -99.5 -58 t-49.5 -173q-14 -93 -15 -147z" />
<glyph unicode="&#xef;" horiz-adv-x="1403" d="M-8 0l170 1067h1214l-170 -1067h-516l119 752h-183l-118 -752h-516z" />
<glyph unicode="&#xf0;" horiz-adv-x="1442" d="M-68 -430l238 1497h479l-33 -195h4q73 118 162.5 169t217.5 51q202 0 296 -115t94 -309q0 -71 -12 -152q-17 -111 -58.5 -208.5t-109.5 -172.5t-162 -117t-210 -42q-208 0 -296 161h-4l-90 -567h-516zM576 424q0 -129 104 -129q74 0 110 59q36 60 52 162q8 42 8 96 q0 136 -102 136q-126 0 -162 -220q-10 -62 -10 -104z" />
<glyph unicode="&#xf1;" horiz-adv-x="1138" d="M14 430q0 52 10 123q42 268 231 403.5t515 135.5q218 0 368 -46l-48 -315q-110 53 -224 53q-118 0 -197 -61t-97 -178q-4 -19 -4 -55q0 -98 58 -153t160 -55q132 0 250 64l-51 -318q-175 -52 -391 -52q-189 0 -318.5 53t-195.5 155t-66 246z" />
<glyph unicode="&#xf2;" horiz-adv-x="1290" d="M37 752l51 315h1250l-52 -315h-366l-119 -752h-517l120 752h-367z" />
<glyph unicode="&#xf3;" horiz-adv-x="1251" d="M-123 -418l47 304q64 -20 152 -21q74 0 122 28.5t54 71.5q0 70 -28 205.5t-30 149.5l-153 747h535l28 -655h4l232 655h496l-426 -893q-74 -160 -131 -262t-134 -186t-184.5 -132t-251.5 -48q-112 0 -332 36z" />
<glyph unicode="&#xf4;" horiz-adv-x="1972" d="M8 372q0 67 12 144q20 120 60 223.5t103 183t150 124.5t199 45q196 0 254 -154h4l94 598h486l-94 -598h4q104 154 299 154q120 0 197.5 -52.5t113 -144t35.5 -213.5q0 -66 -14 -166q-16 -109 -56 -207.5t-102.5 -173.5t-148 -117t-189.5 -42q-100 0 -164.5 38.5 t-97.5 122.5h-4l-90 -567h-485l90 567h-4q-116 -161 -316 -161q-170 0 -253 109t-83 287zM516 414q0 -118 80 -119q64 0 95 61t49 172q10 54 10 98q0 122 -78 122q-108 0 -146 -232q-10 -56 -10 -102zM1184 414q0 -118 82 -119q103 0 139 221q10 62 10 106q0 126 -82 126 q-101 0 -137 -220q-12 -86 -12 -114z" />
<glyph unicode="&#xf5;" horiz-adv-x="1366" d="M-127 0l441 574l-246 493h542l92 -319l195 319h506l-375 -485l260 -582h-546l-114 344l-228 -344h-527z" />
<glyph unicode="&#xf6;" horiz-adv-x="1403" d="M-8 0l170 1067h516l-121 -751h183l120 751h516l-120 -751h63l-78 -500h-499l28 184h-778z" />
<glyph unicode="&#xf7;" horiz-adv-x="1366" d="M70 598q0 42 4 62l66 407h516l-56 -344q0 -71 60 -71q40 0 68 17t38 29l60 369h514l-170 -1067h-514l61 383q-38 -19 -130.5 -47.5t-207.5 -28.5q-131 0 -220 80t-89 211z" />
<glyph unicode="&#xf8;" horiz-adv-x="1857" d="M-8 0l170 1067h471l-121 -751h131l121 751h465l-121 -751h131l121 751h471l-170 -1067h-1669z" />
<glyph unicode="&#xf9;" horiz-adv-x="1857" d="M-8 0l170 1067h471l-121 -751h131l121 751h465l-121 -751h131l121 751h471l-121 -751h62l-78 -500h-500l28 184h-1230z" />
<glyph unicode="&#xfa;" horiz-adv-x="1403" d="M37 752l51 315h666l-50 -307h285q156 0 251.5 -76t95.5 -230q0 -22 -9 -88q-21 -134 -94 -215.5t-171 -116.5q-98 -34 -194 -34h-800l118 752h-149zM610 248q79 2 129 27t62 100q0 82 -39.5 109.5t-107.5 27.5z" />
<glyph unicode="&#xfb;" horiz-adv-x="2009" d="M-8 0l170 1067h516l-50 -307h286q156 0 251 -76t95 -230q0 -26 -8 -88q-21 -134 -94.5 -215.5t-171.5 -116.5q-98 -34 -194 -34h-800zM534 248q79 2 129 27t62 100q0 82 -39.5 109.5t-107.5 27.5zM1296 0l170 1067h516l-170 -1067h-516z" />
<glyph unicode="&#xfc;" horiz-adv-x="1327" d="M-8 0l170 1067h516l-50 -307h286q156 0 251 -76t95 -230q0 -26 -8 -88q-21 -134 -94.5 -215.5t-171.5 -116.5q-98 -34 -194 -34h-800zM534 248q79 2 129 27t62 100q0 82 -39.5 109.5t-107.5 27.5z" />
<glyph unicode="&#xfd;" horiz-adv-x="1138" d="M-43 28l47 300q132 -70 301 -70q101 0 170 45t90 129h-389l39 238h385q0 70 -55 109.5t-154 39.5q-149 1 -311 -67l47 294q163 46 381 46q290 0 438 -108q148 -106 148 -320q0 -58 -8 -111q-30 -184 -126 -313.5t-255 -196.5t-373 -67q-218 0 -375 52z" />
<glyph unicode="&#xfe;" horiz-adv-x="1933" d="M-8 0l170 1067h475l-59 -371h84q48 116 141 206t224 140t286 50q172 0 302.5 -50t201.5 -149.5t71 -243.5q0 -46 -8 -96q-30 -180 -133 -310.5t-262 -198.5t-349 -68q-159 0 -273.5 47t-178.5 139.5t-72 226.5h-84l-61 -389h-475zM1104 404q0 -122 82 -122q66 0 100 69 t54 202q12 83 12 115q0 116 -86 116q-66 0 -97 -59.5t-49 -171.5q-16 -111 -16 -149z" />
<glyph unicode="&#xff;" horiz-adv-x="1345" d="M-74 0q23 40 57.5 141t52.5 146t54 96q84 95 203 115l2 2q-223 54 -223 231q0 17 4 51q24 148 144.5 216.5t324.5 68.5h774l-170 -1067h-516l57 362h2q-44 0 -74 -11t-53 -44q-19 -28 -35.5 -78t-38 -125.5t-32.5 -103.5h-533zM584 719q0 -74 38 -96.5t111 -22.5h13 l36 230h-18q-76 0 -123 -23t-57 -88z" />
<glyph unicode="&#x2000;" horiz-adv-x="949" />
<glyph unicode="&#x2001;" horiz-adv-x="1898" />
<glyph unicode="&#x2002;" horiz-adv-x="949" />
<glyph unicode="&#x2003;" horiz-adv-x="1898" />
<glyph unicode="&#x2004;" horiz-adv-x="632" />
<glyph unicode="&#x2005;" horiz-adv-x="474" />
<glyph unicode="&#x2006;" horiz-adv-x="316" />
<glyph unicode="&#x2007;" horiz-adv-x="316" />
<glyph unicode="&#x2008;" horiz-adv-x="237" />
<glyph unicode="&#x2009;" horiz-adv-x="379" />
<glyph unicode="&#x200a;" horiz-adv-x="105" />
<glyph unicode="&#x2010;" d="M49 372l55 357h574l-56 -357h-573z" />
<glyph unicode="&#x2011;" d="M49 372l55 357h574l-56 -357h-573z" />
<glyph unicode="&#x2012;" d="M49 372l55 357h574l-56 -357h-573z" />
<glyph unicode="&#x2013;" horiz-adv-x="1024" d="M-39 398l47 306h1024l-47 -306h-1024z" />
<glyph unicode="&#x2014;" horiz-adv-x="2048" d="M-39 398l47 306h2048l-47 -306h-2048z" />
<glyph unicode="&#x2018;" horiz-adv-x="647" d="M68 805l336 625h325l-227 -625h-434z" />
<glyph unicode="&#x2019;" horiz-adv-x="647" d="M68 805l227 625h434l-336 -625h-325z" />
<glyph unicode="&#x201a;" horiz-adv-x="647" d="M-98 -252l225 624h434l-333 -624h-326z" />
<glyph unicode="&#x201c;" horiz-adv-x="1138" d="M53 805l336 625h326l-227 -625h-435zM574 805l336 625h325l-227 -625h-434z" />
<glyph unicode="&#x201d;" horiz-adv-x="1138" d="M53 805l227 625h435l-336 -625h-326zM574 805l227 625h434l-336 -625h-325z" />
<glyph unicode="&#x201e;" horiz-adv-x="1138" d="M-112 -252l224 624h435l-334 -624h-325zM408 -252l225 624h434l-334 -624h-325z" />
<glyph unicode="&#x2022;" horiz-adv-x="1024" d="M135 656q1 40 5 59q17 103 82 191t161.5 140t200.5 52q70 0 130.5 -24.5t104.5 -68t68.5 -102.5t24.5 -127q0 -32 -7 -61q-16 -104 -80.5 -191.5t-161.5 -139.5t-200 -52q-93 0 -168 42.5t-117 116.5q-43 75 -43 165z" />
<glyph unicode="&#x2026;" horiz-adv-x="2048" d="M16 0l62 393h446l-61 -393h-447zM698 0l62 393h446l-61 -393h-447zM1380 0l62 393h446l-61 -393h-447z" />
<glyph unicode="&#x202f;" horiz-adv-x="379" />
<glyph unicode="&#x2039;" horiz-adv-x="796" d="M37 553l311 443h410l-254 -443l114 -443h-409z" />
<glyph unicode="&#x203a;" horiz-adv-x="796" d="M10 110l254 443l-114 443h409l172 -443l-311 -443h-410z" />
<glyph unicode="&#x205f;" horiz-adv-x="474" />
<glyph unicode="&#x2122;" horiz-adv-x="2048" d="M156 1216l34 214h705l-35 -214h-198l-101 -638h-307l100 638h-198zM914 578l134 852h388l80 -445h4l223 445h387l-135 -852h-283l70 438h-4l-205 -438h-237l-66 438h-4l-70 -438h-282z" />
<glyph unicode="&#xe000;" horiz-adv-x="1067" d="M0 0v1068h1068v-1068h-1068z" />
</font>
</defs>
</svg>
